<?xml version="1.0" standalone="no"?>
<!DOCTYPE svg PUBLIC "-//W3C//DTD SVG 20010904//EN"
 "http://www.w3.org/TR/2001/REC-SVG-20010904/DTD/svg10.dtd">
<svg version="1.0" xmlns="http://www.w3.org/2000/svg"
 width="500.000000pt" height="500.000000pt" viewBox="0 0 500.000000 500.000000"
 preserveAspectRatio="xMidYMid meet">

<g transform="translate(0.000000,500.000000) scale(0.100000,-0.100000)"
fill="#045669" stroke="none">
<path d="M1505 4149 c-226 -14 -355 -71 -418 -186 -57 -106 -60 -128 -66 -628
l-6 -460 -28 -57 c-40 -81 -122 -140 -227 -163 -57 -12 -56 -17 16 -40 118
-37 178 -86 220 -180 16 -36 19 -88 25 -495 7 -482 10 -513 58 -613 30 -62
106 -128 178 -156 102 -39 391 -70 381 -41 -2 6 -41 26 -87 45 -153 61 -219
130 -240 248 -7 39 -11 210 -11 446 0 413 -7 486 -55 581 -41 82 -125 138
-252 170 -29 8 -53 16 -53 19 0 3 32 14 72 23 98 24 173 71 213 133 67 103 68
112 75 615 6 418 8 459 26 504 36 91 123 160 257 202 53 16 68 28 50 36 -5 2
-62 0 -128 -3z"/>
<path d="M3442 4139 c2 -6 31 -21 65 -34 121 -44 198 -104 237 -185 20 -43 21
-64 27 -495 5 -373 9 -460 23 -508 42 -151 115 -218 291 -268 57 -16 58 -17
30 -24 -184 -43 -282 -123 -321 -261 -14 -49 -18 -134 -23 -514 l-6 -455 -28
-57 c-43 -88 -131 -153 -244 -182 -131 -34 21 -50 193 -21 182 31 288 112 336
255 21 62 22 89 28 525 6 442 7 462 28 515 35 90 102 144 223 181 l74 23 -46
11 c-118 31 -206 92 -239 167 -34 77 -40 163 -40 558 0 411 -6 474 -51 568
-50 103 -156 170 -313 197 -106 18 -249 20 -244 4z"/>
<path d="M2255 3778 c-13 -44 -43 -46 -188 -14 -203 46 -344 29 -453 -53 -134
-101 -160 -293 -58 -427 35 -45 119 -101 280 -183 218 -113 299 -182 311 -268
10 -73 -56 -161 -156 -207 -35 -16 -66 -21 -131 -21 -73 0 -92 4 -138 28 -85
45 -172 145 -216 250 -11 28 -21 37 -39 37 l-25 0 20 -87 c11 -49 22 -133 26
-188 6 -90 9 -100 27 -103 13 -2 26 7 37 28 21 37 32 37 139 4 67 -21 111 -28
214 -31 155 -6 233 9 337 64 122 64 175 154 166 282 -13 171 -144 297 -451
434 -155 69 -203 102 -233 159 -21 41 -17 117 9 162 43 76 105 100 215 85 139
-19 248 -103 317 -242 30 -60 43 -77 60 -77 21 0 21 0 7 78 -7 42 -17 131 -20
197 -6 110 -9 120 -27 123 -16 2 -23 -5 -30 -30z"/>
<path d="M2290 3264 c0 -18 8 -22 46 -28 62 -8 110 -33 139 -71 38 -48 225
-511 425 -1047 l21 -58 47 0 47 0 234 548 c251 588 257 599 338 621 21 6 50
11 66 11 21 0 27 5 27 23 l0 22 -245 0 -245 0 0 -22 c0 -19 5 -23 33 -23 50 0
106 -19 117 -40 17 -31 11 -72 -24 -176 -29 -88 -244 -644 -251 -652 -5 -5
-241 596 -264 672 -41 133 -22 179 81 192 40 6 48 10 46 25 -3 17 -22 18 -321
21 -317 3 -317 3 -317 -18z"/>
<path d="M2690 1810 c-146 -28 -220 -190 -150 -330 41 -81 136 -121 237 -100
52 11 128 64 117 82 -4 5 -15 1 -28 -10 -82 -76 -183 -67 -227 20 -17 33 -22
61 -22 128 0 136 35 190 124 190 56 0 102 -32 128 -90 l16 -35 3 69 c2 37 1
70 -2 73 -2 3 -12 0 -22 -5 -10 -5 -31 -6 -48 -2 -56 14 -90 17 -126 10z"/>
<path d="M1657 1803 c-10 -9 -9 -93 1 -93 4 1 16 15 27 33 18 28 27 32 68 35
l47 3 0 -178 c0 -185 -4 -203 -42 -203 -10 0 -18 -3 -18 -7 0 -5 47 -8 105 -8
58 0 105 3 105 7 0 4 -8 8 -19 8 -39 0 -45 24 -49 206 l-5 175 49 -3 c42 -3
51 -7 69 -35 11 -18 23 -32 28 -33 4 0 7 23 7 50 l0 50 -183 0 c-101 0 -187
-3 -190 -7z"/>
<path d="M2080 1802 c0 -4 14 -13 30 -19 l30 -11 0 -177 0 -177 -30 -11 c-16
-6 -30 -15 -30 -19 0 -4 86 -8 190 -8 l190 0 0 60 c0 66 -6 75 -21 32 -14 -41
-45 -55 -131 -60 l-78 -5 0 92 0 91 53 0 c54 0 87 -19 87 -48 0 -7 5 -12 10
-12 6 0 10 32 10 75 0 41 -3 75 -7 75 -5 0 -16 -14 -25 -30 -16 -28 -21 -30
-73 -30 l-55 0 0 80 0 80 65 0 c74 0 108 -12 126 -46 19 -36 32 -29 25 14 -3
20 -6 43 -6 50 0 9 -43 12 -180 12 -99 0 -180 -4 -180 -8z"/>
<path d="M2950 1798 c0 -5 8 -8 19 -8 40 0 46 -25 46 -195 0 -170 -6 -195 -46
-195 -11 0 -19 -3 -19 -7 0 -5 47 -8 105 -8 58 0 105 3 105 7 0 4 -9 8 -20 8
-30 0 -40 31 -40 120 l0 81 88 -3 87 -3 0 -81 c-1 -86 -12 -114 -46 -114 -11
0 -19 -3 -19 -7 0 -5 50 -8 110 -8 61 0 110 3 110 8 0 4 -9 7 -19 7 -45 0 -51
21 -51 191 0 92 4 169 10 180 7 11 21 19 37 19 14 0 24 3 21 6 -9 8 -218 10
-218 2 0 -5 8 -8 19 -8 31 0 43 -26 49 -100 l5 -70 -92 0 -91 0 0 69 c0 71 14
101 46 101 8 0 14 3 14 8 0 4 -47 7 -105 7 -58 0 -105 -3 -105 -7z"/>
</g>
</svg>
